<svg xmlns="http://www.w3.org/2000/svg" width="55.958" height="69.948" viewBox="0 0 55.958 69.948"><defs><style>.a{fill:#e8356b;}</style></defs><g transform="translate(-16 -10)"><g transform="translate(16 10)"><path class="a" d="M20.978,52.611A8.852,8.852,0,0,0,16,60.2V78.782a1.166,1.166,0,0,0,2.332,0V60.2a6.551,6.551,0,0,1,3.574-5.454l16.708-7.264a1.166,1.166,0,0,0,.7-1.07V41.476a1.2,1.2,0,0,0-.67-1.055c-.026-.013-2.648-1.369-4.318-7.376a1.166,1.166,0,0,0-.268-.48,7.793,7.793,0,0,1-1.68-3.289,3.975,3.975,0,0,1,.19-2.534,1.166,1.166,0,0,0,.779-1.3c-.268-1.627-.593-6.415,1.11-8.97,2.18-3.272,7.011-4.146,9.521-4.146,5.626,0,7.214,2.87,7.27,2.979a1.169,1.169,0,0,0,.794.621c4.188.926,2.594,9.387,2.576,9.472a1.128,1.128,0,0,0,.739,1.322,3.767,3.767,0,0,1,.22,2.555A7.792,7.792,0,0,1,53.9,32.564a1.153,1.153,0,0,0-.268.48c-1.672,6.007-4.292,7.363-4.3,7.367a1.166,1.166,0,0,0-.691,1.066v4.938a1.164,1.164,0,0,0,.7,1.069l16.708,7.264A6.551,6.551,0,0,1,69.627,60.2V77.616h-3.5a1.166,1.166,0,0,0,0,2.332h4.663a1.165,1.165,0,0,0,1.166-1.166V60.2a8.853,8.853,0,0,0-4.978-7.592l-16.006-6.96V42.126c1.128-.813,3.331-2.986,4.833-8.2a10.013,10.013,0,0,0,2.06-4.184c.286-1.413.227-3.542-.831-4.636.36-2.427,1.007-9.759-4-11.318C52.235,12.656,49.74,10,43.979,10c-3.694,0-8.913,1.357-11.462,5.182-2.081,3.122-1.779,8.027-1.57,9.9-1.082,1.087-1.142,3.234-.856,4.654a10.02,10.02,0,0,0,2.061,4.19c1.5,5.218,3.7,7.391,4.833,8.2V45.65Z" transform="translate(-16 -10)"/><path class="a" d="M54.338,68.336a1.182,1.182,0,0,0,0,1.655,1.2,1.2,0,0,0,.828.338,1.169,1.169,0,1,0-.828-1.994Z" transform="translate(-9.7 -0.382)"/></g></g></svg>