<svg xmlns="http://www.w3.org/2000/svg" width="454.909" height="794.542" viewBox="0 0 454.909 794.542"><defs><style>.a,.j{fill:none;}.a,.c,.e,.f,.j{stroke:#1e252a;}.a,.e,.j{stroke-linecap:round;stroke-linejoin:round;}.a,.c,.e,.f{stroke-miterlimit:10;}.a{stroke-dasharray:5;}.b{fill:#e3e3e3;}.c,.e,.f,.m{fill:#fff;}.d{fill:#6a9099;opacity:0.15;}.f{stroke-width:2px;}.g{fill:#ededed;}.h{font-size:11px;font-family:Montserrat-Bold, Montserrat;font-weight:700;}.i{fill:#e8356b;}.k{fill:#243366;fill-rule:evenodd;}.l{fill:#1e252a;}</style></defs><g transform="translate(-35.95 -67.7)"><path class="a" d="M253.6,827.233,57.3,642.251,440.35,369.789,78.522,82" transform="translate(3.821 2.559)"/><path class="b" d="M326.485,394.812A10.9,10.9,0,0,0,315.52,383.73H291v-8.724a5.283,5.283,0,0,0-5.305-5.305H194.911a5.283,5.283,0,0,0-5.305,5.305v8.724H165.082A11.07,11.07,0,0,0,154,394.812V555.036h36.784v5.07a5.283,5.283,0,0,0,5.305,5.305h90.781a5.283,5.283,0,0,0,5.305-5.305v-5.07h34.19l.118-160.223Z" transform="translate(21.129 54.052)"/><g transform="translate(50.157 228.749)"><path class="c" d="M322.067,553.443H149.7V391.333A12.68,12.68,0,0,1,162.433,378.6h146.9a12.68,12.68,0,0,1,12.733,12.733v162.11Z" transform="translate(-29.798 -173.104)"/><path class="c" d="M106.831,204.3h-46.1A12.68,12.68,0,0,0,48,217.033V522.742a12.68,12.68,0,0,0,12.733,12.733h46.1a12.68,12.68,0,0,0,12.733-12.733V217.033A12.68,12.68,0,0,0,106.831,204.3Z" transform="translate(-48 -204.3)"/><path class="c" d="M275.062,372.2H185.931a6.089,6.089,0,0,0-6.131,6.131v1.3H281.192v-1.3A6.089,6.089,0,0,0,275.062,372.2Z" transform="translate(-24.411 -174.249)"/></g><g transform="translate(63.361 300.548)"><path class="d" d="M101.111,313.07H65.388a5.157,5.157,0,0,1-5.188-5.187V271.688a5.157,5.157,0,0,1,5.188-5.188h35.605a5.157,5.157,0,0,1,5.188,5.188V308A5.031,5.031,0,0,1,101.111,313.07Z" transform="translate(-59.021 -264.967)"/><path class="c" d="M100.111,457.492H64.388A5.157,5.157,0,0,1,59.2,452.3V270.388a5.157,5.157,0,0,1,5.188-5.187H99.993a5.157,5.157,0,0,1,5.188,5.188V452.422A5.107,5.107,0,0,1,100.111,457.492Z" transform="translate(-59.2 -265.2)"/></g><g transform="translate(69.02 312.102)"><path class="e" d="M67.655,275H64v3.773" transform="translate(-64 -275)"/><path class="e" d="M95.055,278.773V275H91.4" transform="translate(-59.096 -275)"/><path class="e" d="M91.4,418.955h3.655V415.3" transform="translate(-59.096 -249.889)"/><path class="e" d="M64,415.3v3.655h3.655" transform="translate(-64 -249.889)"/></g><g transform="translate(121.367 503.333)"><rect class="c" width="40.911" height="39.142" transform="translate(0 0)"/><path class="c" d="M108.8,476.342s6.838-7.9,6.838-39.142" transform="translate(-108.328 -437.2)"/><path class="c" d="M119.7,476.342s6.838-7.9,6.838-39.142" transform="translate(-106.378 -437.2)"/><path class="c" d="M129.9,476.342s6.838-7.9,6.838-39.142" transform="translate(-104.552 -437.2)"/></g><path class="c" d="M143,416.931v89.131a6.089,6.089,0,0,0,6.131,6.131h1.3V410.8h-1.3A6.089,6.089,0,0,0,143,416.931Z" transform="translate(19.16 61.408)"/><g transform="translate(121.367 250.442)"><rect class="c" width="40.911" height="39.142" transform="translate(0)"/><path class="c" d="M108.8,261.842s6.838-7.9,6.838-39.142" transform="translate(-108.328 -222.7)"/><path class="c" d="M119.7,261.842s6.838-7.9,6.838-39.142" transform="translate(-106.378 -222.7)"/><path class="c" d="M129.9,261.842s6.838-7.9,6.838-39.142" transform="translate(-104.552 -222.7)"/></g><path class="c" d="M143,202.431v89.131a6.089,6.089,0,0,0,6.131,6.131h1.3V196.3h-1.3A6.089,6.089,0,0,0,143,202.431Z" transform="translate(19.16 23.017)"/><path class="f" d="M52.2,723.609s48.22-32.186,103.632-28.649,125.09,25.938,189.462,29.474S478.519,686,478.519,686" transform="translate(2.908 110.663)"/><path class="g" d="M375.467,592.041c18.156,0,35.605-13.676,35.605-30.771,0-16.977-19.335-33.483-36.9-29.828l-.236.236c-.943-6.484-15.209-16.977-28.06-16.977-18.156,0-32.776,13.44-32.776,29.946a25.711,25.711,0,0,0,1.061,7.428l-.472-.236a13.9,13.9,0,0,0-4.952-.472c-12.615.118-22.636,9.078-22.636,20.279,0,11.082,10.021,20.161,22.518,20.161l66.848.236Z" transform="translate(44.772 80.004)"/><path class="b" d="M350.89,598.03H291v-8.724A5.283,5.283,0,0,0,285.692,584H194.911a5.283,5.283,0,0,0-5.305,5.305v8.724H165.082A11.07,11.07,0,0,0,154,609.112V769.336H361.736V609.112A10.726,10.726,0,0,0,350.89,598.03Z" transform="translate(21.129 92.407)"/><path class="b" d="M326.485,180.812A10.9,10.9,0,0,0,315.52,169.73H291v-8.724a5.283,5.283,0,0,0-5.305-5.305H194.911a5.283,5.283,0,0,0-5.305,5.305v8.724H165.082A11.07,11.07,0,0,0,154,180.812V341.036h36.784v5.07a5.283,5.283,0,0,0,5.305,5.305h90.781a5.283,5.283,0,0,0,5.305-5.305v-5.07h34.19l.118-160.223Z" transform="translate(21.129 15.75)"/><g transform="translate(134.69 679.355)"><path class="c" d="M362.806,767.743H119.7V605.633A12.68,12.68,0,0,1,132.433,592.9h217.64a12.68,12.68,0,0,1,12.733,12.733v162.11Z" transform="translate(-119.7 -585.355)"/><path class="c" d="M275.062,586.5H185.931a6.089,6.089,0,0,0-6.131,6.131v1.3H281.192v-1.3A6.089,6.089,0,0,0,275.062,586.5Z" transform="translate(-108.943 -586.5)"/></g><rect class="b" width="134.168" height="9.432" transform="translate(191.752 714.135)"/><g transform="translate(204.014 737.36)"><path class="d" d="M275.69,746.93H192.808A11.875,11.875,0,0,1,180.9,735.023V650.844A12.126,12.126,0,0,1,193.043,638.7H275.69A11.875,11.875,0,0,1,287.6,650.608v84.3A11.9,11.9,0,0,1,275.69,746.93Z" transform="translate(-178.07 -635.163)"/><path class="c" d="M273.29,743.93H190.408A11.875,11.875,0,0,1,178.5,732.023V647.844A12.126,12.126,0,0,1,190.643,635.7H273.29A11.875,11.875,0,0,1,285.2,647.608v84.3A11.976,11.976,0,0,1,273.29,743.93Z" transform="translate(-178.5 -635.7)"/><g transform="translate(11.672 10.257)"><path class="e" d="M196.889,644.4H188.4v8.607" transform="translate(-188.4 -644.4)"/><path class="e" d="M260.389,653.007V644.4H251.9" transform="translate(-177.035 -644.4)"/><path class="e" d="M251.9,720.107h8.489V711.5" transform="translate(-177.035 -632.391)"/><path class="e" d="M188.4,711.5v8.607h8.489" transform="translate(-188.4 -632.391)"/></g></g><text class="h" transform="translate(194.871 716.038)"><tspan x="0" y="0">DATA MANAGEMENT</tspan></text><g transform="translate(170.059 174.398)"><path class="c" d="M322.067,339.443H149.7V177.333A12.68,12.68,0,0,1,162.433,164.6h146.9a12.68,12.68,0,0,1,12.733,12.733v162.11Z" transform="translate(-149.7 -157.055)"/><path class="c" d="M275.062,158.2H185.931a6.089,6.089,0,0,0-6.131,6.131v1.3H281.192v-1.3A6.089,6.089,0,0,0,275.062,158.2Z" transform="translate(-144.313 -158.2)"/></g><rect class="b" width="134.168" height="9.432" transform="translate(191.752 209.178)"/><rect class="b" width="9.432" height="134.168" transform="translate(89.535 328.137)"/><g transform="translate(204.014 232.521)"><path class="d" d="M275.69,318.612H192.808A11.875,11.875,0,0,1,180.9,306.7V222.643A12.126,12.126,0,0,1,193.043,210.5H275.69A11.875,11.875,0,0,1,287.6,222.408v84.3A11.875,11.875,0,0,1,275.69,318.612Z" transform="translate(-178.07 -206.963)"/><path class="c" d="M273.29,315.612H190.408A11.875,11.875,0,0,1,178.5,303.7V219.643A12.126,12.126,0,0,1,190.643,207.5H273.29A11.875,11.875,0,0,1,285.2,219.408v84.3A11.95,11.95,0,0,1,273.29,315.612Z" transform="translate(-178.5 -207.5)"/><g transform="translate(11.672 10.139)"><path class="e" d="M196.889,216.1H188.4v8.607" transform="translate(-188.4 -216.1)"/><path class="e" d="M260.389,224.707V216.1H251.9" transform="translate(-177.035 -216.1)"/><path class="e" d="M251.9,291.807h8.489V283.2" transform="translate(-177.035 -204.09)"/><path class="e" d="M188.4,283.2v8.607h8.489" transform="translate(-188.4 -204.09)"/></g></g><text class="h" transform="translate(187.921 211.087)"><tspan x="0" y="0">ADVANCED ANALYTICS</tspan></text><path class="c" d="M185.931,320.628h89.131a6.089,6.089,0,0,0,6.131-6.131v-1.3H179.8v1.3A6.089,6.089,0,0,0,185.931,320.628Z" transform="translate(25.746 43.939)"/><rect class="b" width="134.168" height="9.432" transform="translate(191.752 461.479)"/><g transform="translate(204.014 484.823)"><path class="d" d="M275.69,532.612H192.808A11.875,11.875,0,0,1,180.9,520.7V436.644A12.126,12.126,0,0,1,193.043,424.5H275.69A11.875,11.875,0,0,1,287.6,436.408v84.3A11.875,11.875,0,0,1,275.69,532.612Z" transform="translate(-178.07 -420.963)"/><path class="c" d="M273.29,529.612H190.408A11.875,11.875,0,0,1,178.5,517.7V433.643A12.126,12.126,0,0,1,190.643,421.5H273.29A11.875,11.875,0,0,1,285.2,433.408v84.3A11.95,11.95,0,0,1,273.29,529.612Z" transform="translate(-178.5 -421.5)"/><g transform="translate(11.672 10.139)"><path class="e" d="M196.889,430.1H188.4v8.607" transform="translate(-188.4 -430.1)"/><path class="e" d="M260.389,438.707V430.1H251.9" transform="translate(-177.035 -430.1)"/><path class="e" d="M251.9,505.807h8.489V497.2" transform="translate(-177.035 -418.09)"/><path class="e" d="M188.4,497.2v8.607h8.489" transform="translate(-188.4 -418.09)"/></g></g><text class="h" transform="translate(197.653 463.389)"><tspan x="0" y="0">DATA ENGINEERING</tspan></text><path class="c" d="M185.931,534.628h89.131a6.089,6.089,0,0,0,6.131-6.131v-1.3H179.8v1.3A6.089,6.089,0,0,0,185.931,534.628Z" transform="translate(25.746 82.241)"/><rect class="c" width="61.307" height="64.136" transform="translate(228.183 364.567)"/><path class="c" d="M199,320.2s12.379,10.729,61.307,10.729" transform="translate(29.183 45.192)"/><path class="c" d="M199,337.2s12.379,10.729,61.307,10.729" transform="translate(29.183 48.235)"/><path class="c" d="M199,353.2s12.379,10.729,61.307,10.729" transform="translate(29.183 51.099)"/><rect class="c" width="61.307" height="64.136" transform="translate(228.183 616.869)"/><path class="c" d="M199,534.2s12.379,10.729,61.307,10.729" transform="translate(29.183 83.494)"/><path class="c" d="M199,551.2s12.379,10.729,61.307,10.729" transform="translate(29.183 86.537)"/><path class="c" d="M199,567.2s12.379,10.729,61.307,10.729" transform="translate(29.183 89.4)"/><g transform="translate(238.793 514.224)"><path class="i" d="M228.043,1398.8a32.439,32.439,0,0,0-13.912,2.83c-3.655,1.768-6.131,4.362-6.131,7.546v30.889c0,3.183,2.594,5.777,6.131,7.546a35.615,35.615,0,0,0,27.824,0c3.655-1.768,6.131-4.362,6.131-7.546v-30.889c0-3.183-2.594-5.777-6.131-7.546A32.437,32.437,0,0,0,228.043,1398.8Zm0,2.24c5.07,0,9.668.943,12.851,2.594,3.183,1.533,4.834,3.537,4.834,5.423s-1.651,3.891-4.834,5.423a33.132,33.132,0,0,1-25.7,0c-3.183-1.533-4.834-3.537-4.834-5.423s1.651-3.891,4.834-5.423A30.667,30.667,0,0,1,228.043,1401.04Zm-17.8,12.969a13.2,13.2,0,0,0,3.891,2.594,35.615,35.615,0,0,0,27.824,0,15.981,15.981,0,0,0,3.891-2.594v5.423c0,1.886-1.651,3.891-4.834,5.423a33.132,33.132,0,0,1-25.7,0c-3.183-1.533-4.834-3.537-4.834-5.423v-5.423Zm0,10.257a13.2,13.2,0,0,0,3.891,2.594,35.615,35.615,0,0,0,27.824,0,15.981,15.981,0,0,0,3.891-2.594v5.423c0,1.886-1.651,3.891-4.834,5.423a33.132,33.132,0,0,1-25.7,0c-3.183-1.533-4.834-3.537-4.834-5.423v-5.423Zm0,10.257a13.2,13.2,0,0,0,3.891,2.594,35.615,35.615,0,0,0,27.824,0,15.981,15.981,0,0,0,3.891-2.594v5.423c0,1.886-1.651,3.891-4.834,5.423a33.132,33.132,0,0,1-25.7,0c-3.183-1.533-4.834-3.537-4.834-5.423v-5.423Z" transform="translate(-208 -1398.8)"/></g><g transform="translate(234.078 766.481)"><path class="i" d="M238.544,705.034h-33.6a.93.93,0,0,1-.943-.943V689.943a.93.93,0,0,1,.943-.943h12.379a.93.93,0,0,1,.943.943,3.537,3.537,0,0,0,7.074,0,.93.93,0,0,1,.943-.943h12.379a.93.93,0,0,1,.943.943v14.148C239.369,704.68,239.016,705.034,238.544,705.034Zm-32.776-1.768H237.6V690.886H226.872a5.32,5.32,0,0,1-10.493,0H205.651v12.379Z" transform="translate(-204 -655.281)"/><path class="i" d="M247.591,705.034H233.443a.93.93,0,0,1-.943-.943V689.943a.93.93,0,0,1,.943-.943h14.148a.93.93,0,0,1,.943.943v14.148C248.416,704.68,248.063,705.034,247.591,705.034Zm-13.322-1.768h12.379V690.886H234.268Z" transform="translate(-198.899 -655.281)"/><path class="i" d="M221.291,700.367a5.212,5.212,0,0,1-5.187-4.48h-8.96a.93.93,0,0,1-.943-.943V665.705a5.283,5.283,0,0,1,5.305-5.305h28.3a.93.93,0,0,1,.943.943.868.868,0,0,1-.943.943,3.474,3.474,0,0,0-3.537,3.537v29.239a.93.93,0,0,1-.943.943h-8.96A4.823,4.823,0,0,1,221.291,700.367Zm-13.322-6.131h8.842a.93.93,0,0,1,.943.943,3.537,3.537,0,0,0,7.074,0,.93.93,0,0,1,.943-.943h8.842v-28.3a5.444,5.444,0,0,1,1.3-3.537h-24.4a3.474,3.474,0,0,0-3.537,3.537v28.3Z" transform="translate(-203.606 -660.4)"/><path class="i" d="M239.986,669.46h-8.842a.93.93,0,0,1-.943-.943v-2.712a5.305,5.305,0,1,1,10.611,0v2.712A.835.835,0,0,1,239.986,669.46Zm-7.9-1.768h7.074v-1.768a3.537,3.537,0,0,0-7.074,0Z" transform="translate(-199.311 -660.382)"/><path class="i" d="M235.623,694.376h-4.48a.93.93,0,0,1-.943-.943v-22.99a.93.93,0,0,1,.943-.943h4.48a.93.93,0,0,1,.943.943v22.99C236.449,694.023,236.095,694.376,235.623,694.376Zm-3.537-1.768H234.8V671.386h-2.712Z" transform="translate(-199.311 -658.771)"/><path class="i" d="M239.323,694.108h-4.48a.93.93,0,0,1-.943-.943V671.943a.93.93,0,0,1,.943-.943h4.48a.93.93,0,0,1,.943.943v21.222A.93.93,0,0,1,239.323,694.108Zm-3.537-1.768H238.5V672.886h-2.712Z" transform="translate(-198.649 -658.503)"/><path class="i" d="M243.123,693.84h-4.48a.93.93,0,0,1-.943-.943V673.443a.93.93,0,0,1,.943-.943h4.48a.93.93,0,0,1,.943.943V692.9C243.949,693.486,243.595,693.84,243.123,693.84Zm-3.537-1.768H242.3V674.386h-2.712Z" transform="translate(-197.968 -658.234)"/><path class="i" d="M230.4,672.192H210.943a.93.93,0,0,1-.943-.943v-5.305a.93.93,0,0,1,.943-.943H230.4a.93.93,0,0,1,.943.943v5.305C231.222,671.72,230.868,672.192,230.4,672.192Zm-18.628-1.768h17.685v-3.537H211.768Z" transform="translate(-202.926 -659.577)"/><path class="i" d="M219.686,675.086h-8.842a.93.93,0,0,1-.943-.943.868.868,0,0,1,.943-.943h8.842a.93.93,0,0,1,.943.943A.868.868,0,0,1,219.686,675.086Z" transform="translate(-202.944 -658.109)"/><path class="i" d="M219.686,678.886h-8.842a.943.943,0,1,1,0-1.886h8.842a.943.943,0,0,1,0,1.886Z" transform="translate(-202.944 -657.429)"/><path class="i" d="M230.4,682.586H210.943a.943.943,0,1,1,0-1.886H230.4a.93.93,0,0,1,.943.943C231.222,682.233,230.868,682.586,230.4,682.586Z" transform="translate(-202.926 -656.767)"/><path class="i" d="M230.4,686.386H210.943a.943.943,0,1,1,0-1.886H230.4a.93.93,0,0,1,.943.943C231.222,686.033,230.868,686.386,230.4,686.386Z" transform="translate(-202.926 -656.087)"/><path class="i" d="M228.517,679.566h-7.074a.93.93,0,0,1-.943-.943v-4.48a.93.93,0,0,1,.943-.943h7.074a.93.93,0,0,1,.943.943v4.48C229.342,679.095,228.989,679.566,228.517,679.566Zm-6.249-1.768h5.305v-2.712h-5.305Z" transform="translate(-201.047 -658.109)"/></g><circle class="j" cx="7.428" cy="7.428" r="7.428" transform="translate(443.818 458.768)"/><circle class="j" cx="7.428" cy="7.428" r="7.428" transform="translate(414.461 737.125)"/><circle class="d" cx="11.672" cy="11.672" r="11.672" transform="translate(422.95 461.125)"/><path class="d" d="M108.16,488.21l2.947-4.6a1.375,1.375,0,1,0-2.358-1.415l-2.947,4.6-4.6-2.947a1.374,1.374,0,0,0-1.886.589,1.419,1.419,0,0,0,.354,1.651l4.6,2.947-2.712,4.716a1.479,1.479,0,0,0,.472,1.886,1.146,1.146,0,0,0,1.061.118,1.62,1.62,0,0,0,.943-.589l2.947-4.6,4.6,2.947a1.456,1.456,0,1,0,1.533-2.476h0Z" transform="translate(11.32 74.072)"/><path class="j" d="M79.6,651.842l-15.8,8.489L64.625,643Z" transform="translate(4.985 102.967)"/><path class="d" d="M63.3,671.794v-.236l6.72-13.44V658a.433.433,0,0,1,.354.118L78.627,670.5v.236c-.118,0-.118.118-.236.118l-14.855.825Z" transform="translate(4.895 105.652)"/><path class="j" d="M409.718,202.2l-.118,11.554" transform="translate(66.876 24.073)"/><path class="j" d="M416.354,207.118,404.8,207" transform="translate(66.017 24.932)"/><circle class="d" cx="13.087" cy="13.087" r="13.087" transform="translate(52.515 633.846)"/><g transform="translate(49.685 632.078)"><circle class="i" cx="12.026" cy="12.026" r="12.026" transform="translate(0 0)"/></g><circle class="d" cx="13.087" cy="13.087" r="13.087" transform="translate(435.801 361.266)"/><g transform="translate(432.971 359.497)"><circle class="i" cx="12.026" cy="12.026" r="12.026"/></g><circle class="d" cx="13.087" cy="13.087" r="13.087" transform="translate(74.797 74.42)"/><g transform="translate(71.968 72.77)"><circle class="i" cx="12.026" cy="12.026" r="12.026"/></g><g transform="translate(231.484 260.345)"><path class="i" d="M201.8,231.1v8.489h52.465V231.1Zm50.7,6.838H203.451v-5.07H252.5v5.07Z" transform="translate(-201.8 -231.1)"/><rect class="i" width="1.651" height="1.651" transform="translate(3.301 3.419)"/><rect class="i" width="1.651" height="1.651" transform="translate(6.72 3.419)"/><rect class="i" width="1.651" height="1.651" transform="translate(10.139 3.419)"/><path class="i" d="M252.5,280.375H203.451V239.7H201.8v42.325h52.347V239.7H252.5Z" transform="translate(-201.8 -229.561)"/><path class="i" d="M218.984,245.5a14.384,14.384,0,1,0,14.384,14.384A14.291,14.291,0,0,0,218.984,245.5ZM231.6,258.7l-6.484,6.484-1.3-1.415,7.428-7.428A8.169,8.169,0,0,1,231.6,258.7Zm-8.96,3.891-1.3-1.415,8.253-8.253a12.883,12.883,0,0,1,.943,1.768Zm-2.83-10.021,4.362-4.362a12.888,12.888,0,0,1,1.768.943l-6.013,6.013-.118-2.594Zm0-2.358v-2.947a10.027,10.027,0,0,1,2.594.472ZM220.28,260l-.354-.472v-1.886l7.428-7.428a13.447,13.447,0,0,1,1.3,1.3Zm-2.122-12.851v12.143l-10.847,5.423a13.7,13.7,0,0,1-.943-4.952A12.72,12.72,0,0,1,218.158,247.151Zm-10.021,19.1,10.729-5.423L227,269.669a12.627,12.627,0,0,1-18.864-3.419Zm20.043,2.358-1.886-2.122,5.423-5.423A13.277,13.277,0,0,1,228.18,268.608Z" transform="translate(-201.299 -228.523)"/><rect class="i" width="1.651" height="1.651" transform="translate(10.965 38.081)"/><rect class="i" width="1.651" height="1.651" transform="translate(15.209 38.081)"/><rect class="i" width="1.651" height="1.651" transform="translate(19.453 38.081)"/><rect class="i" width="6.72" height="1.651" transform="translate(8.371 24.523)"/><rect class="i" width="6.72" height="1.651" transform="translate(8.371 27.942)"/><path class="i" d="M230.5,275.51h15.209V257H230.5Zm1.651-16.859h11.79v15.209h-11.79Z" transform="translate(-196.663 -226.464)"/><rect class="i" width="8.489" height="1.651" transform="translate(37.138 33.837)"/><rect class="i" width="8.489" height="1.651" transform="translate(37.138 37.256)"/><rect class="i" width="1.651" height="1.651" transform="translate(37.138 40.675)"/><rect class="i" width="5.07" height="1.651" transform="translate(40.557 40.675)"/><rect class="i" width="8.489" height="1.651" transform="translate(37.138 43.976)"/><path class="i" d="M236.914,239.7a9.314,9.314,0,1,0,9.314,9.314A9.259,9.259,0,0,0,236.914,239.7Zm0,16.977a7.663,7.663,0,1,1,7.663-7.663A7.8,7.8,0,0,1,236.914,256.677Z" transform="translate(-197.182 -229.561)"/></g><path class="k" d="M302.516,180.96a10.073,10.073,0,0,1-16.977-10.847,9.965,9.965,0,0,1,8.724-4.6,5.77,5.77,0,0,0,5.07-2.594l4.6-7.074a5.869,5.869,0,0,0-.118-6.6,16.787,16.787,0,0,1,3.773-23.462c.118-.118.236-.118.354-.236a15.461,15.461,0,0,1,12.379-2.594,16.7,16.7,0,1,1-5.777,32.894c-.236,0-.354-.118-.589-.118a5.812,5.812,0,0,0-6.013,2.594l-4.48,6.956a6.262,6.262,0,0,0-.354,5.777A9.937,9.937,0,0,1,302.516,180.96Z" transform="translate(44.39 9.825)"/><path class="k" d="M302.516,180.96a10.073,10.073,0,0,1-16.977-10.847,9.965,9.965,0,0,1,8.724-4.6,5.77,5.77,0,0,0,5.07-2.594l4.6-7.074a5.869,5.869,0,0,0-.118-6.6,16.787,16.787,0,0,1,3.773-23.462c.118-.118.236-.118.354-.236a15.461,15.461,0,0,1,12.379-2.594,16.7,16.7,0,1,1-5.777,32.894c-.236,0-.354-.118-.589-.118a5.812,5.812,0,0,0-6.013,2.594l-4.48,6.956a6.262,6.262,0,0,0-.354,5.777A9.937,9.937,0,0,1,302.516,180.96Z" transform="translate(80.39 512.825)"/><path class="k" d="M41.079,734.434a3,3,0,0,1-4.244-4.244,3.071,3.071,0,0,1,2.83-.825,1.751,1.751,0,0,0,1.651-.472l1.768-1.768a1.847,1.847,0,0,0,.354-1.886,4.883,4.883,0,0,1,2.594-6.484h.118a5.206,5.206,0,0,1,3.773,0,4.893,4.893,0,1,1-3.655,9.078.115.115,0,0,1-.118-.118,1.847,1.847,0,0,0-1.886.354l-1.768,1.768a1.751,1.751,0,0,0-.472,1.651A3.6,3.6,0,0,1,41.079,734.434Z" transform="translate(0 116.462)"/><path class="i" d="M415.8,683.337a3.547,3.547,0,0,1,3.537-3.537h0a3.474,3.474,0,0,1,3.537,3.537,3.626,3.626,0,0,1-3.537,3.537h0a3.474,3.474,0,0,1-3.537-3.537Z" transform="translate(67.985 109.553)"/><g transform="translate(277.464 80.787)"><path class="l" d="M241.572,79.554,241.1,79.2v.118l.472.236Z" transform="translate(-240.746 -78.728)"/><path class="m" d="M244.337,80.8l-3.537-1.3.118-.236c0-.118,0-.118.118-.236l.118-.236Z" transform="translate(-240.8 -78.8)"/></g><path class="l" d="M267.929,148.224a20.35,20.35,0,0,0-13.558-19.217,11.16,11.16,0,0,0-2.122-.589l-.472-.118-.118-.472c0-.236-.118-.354-.236-.354,0,0-2.83-2.712-6.013-5.895l-.589-.589.589-.589a21.138,21.138,0,0,0,6.013-12.851V107.2l3.537-2.947a6.048,6.048,0,0,0,1.768-7.074,5.971,5.971,0,0,0-2-2.594l-.943-.707.825-.707a6.728,6.728,0,0,0,2.358-5.188V84.442a6.709,6.709,0,0,0-6.249-6.72l-.825-.118V74.538a6.843,6.843,0,0,0-6.838-6.838h-.118L206.269,77.839v.589a6.945,6.945,0,0,0,3.065,5.659l.354.236v8.842l-.707.118a5.968,5.968,0,0,0-4.48,3.655,6.179,6.179,0,0,0,1.768,7.074l3.537,2.83v.354a21.248,21.248,0,0,0,6.131,12.969l.589.589-6.484,6.484c-.118.118-.236.236-.236.354l-.118.472-.472.118a20.6,20.6,0,0,0-10.611,6.131,20.376,20.376,0,0,0-5.305,13.794v17.449a.806.806,0,0,0,.825.825H267.1a.806.806,0,0,0,.825-.825ZM209.806,104.6l-2.358-1.886a4.377,4.377,0,0,1-1.3-5.188,4.627,4.627,0,0,1,2.476-2.476l1.179-.472Zm39.024,22.519.707.707-10.611,8.96-1.3-1.415-.707-.707a10.684,10.684,0,0,0-1.886-1.3l-1.3-.707,1.179-.825a7.208,7.208,0,0,0,3.065-5.895v-1.061l.589-.236a27.311,27.311,0,0,0,4.48-2.476l.589-.472.59.472A39.905,39.905,0,0,0,248.83,127.121Zm-15.209,17.1.943,5.07-9.55,9.668,1.415-7.545Zm-6.72,4.362,1.415-7.545h4.6l.236,1.061-.236.472Zm6.366-9.314H228.2l-1.886-3.655.707-.472a7.806,7.806,0,0,1,7.545-.118l.825.472Zm-2.712-7.663a5.6,5.6,0,0,1-5.541-4.834l-.118-1.3,1.179.236a17.357,17.357,0,0,0,4.244.472h.118a19.981,19.981,0,0,0,4.48-.472l1.179-.236-.118,1.3A5.394,5.394,0,0,1,230.556,131.6ZM255.2,97.528a4.549,4.549,0,0,1-1.3,5.188l-2.476,2V94.581l1.179.472A4.473,4.473,0,0,1,255.2,97.528Zm-6.838-14.855.118-.118.118-.118h0a1030.665,1030.665,0,0,0,.236-.236l.354-.589c0-.118.118-.118.118-.236v-.118c0-.118.118-.118.118-.236V80.9l.118-.236c0-.118,0-.118.118-.236V79.018l.943.118a5.112,5.112,0,0,1,4.6,5.07v3.537a5.234,5.234,0,0,1-5.187,5.188,6.22,6.22,0,0,1-6.131-6.013v-2l1.179-.118h.118a.411.411,0,0,0,.236-.118c.118,0,.236-.118.354-.118l.236-.118c.118,0,.118-.118.236-.118a.115.115,0,0,0,.118-.118.412.412,0,0,1,.236-.118l.118-.118c.118-.118.236-.118.236-.236l.236-.118.118-.118h0l.236-.236.118-.118.236-.354.471-.118Zm-40.085-2.83-.236-.825.236-.118,35.016-9.668h.118a5.19,5.19,0,0,1,4.952,5.188v4.009a5.234,5.234,0,0,1-5.187,5.188H213.225A5.593,5.593,0,0,1,208.273,79.843Zm3.183,25.348V85.031l.943.118h29.946v1.886a8.037,8.037,0,0,0,6.6,7.545l.707.118v11.908A18.663,18.663,0,0,1,244,119.1a19.209,19.209,0,0,1-13.44,5.541h-.118A19.456,19.456,0,0,1,211.456,105.192Zm6.484,16.624.589.472a18.626,18.626,0,0,0,4.244,2.358l.59.236v1.061a7.387,7.387,0,0,0,3.183,6.013l1.3.825-1.3.707a7.6,7.6,0,0,0-1.886,1.3l-.236.118-.236.236-1.533,1.533-10.611-8.96Zm-7.428,43.033v-9.432h-1.651v9.314H195.068V148.224a18.484,18.484,0,0,1,16.034-18.51h.354l.118.118,10.493,8.842a.88.88,0,0,0,1.061,0l1.651-1.651,1.886,3.419-4.48,24.523-11.672-.118Zm13.44,0,.59-2.947,10.375-10.611,1.3,6.72-.118.118-6.72,6.6-5.423.118Zm7.663,0,4.834-4.716.825,4.716Zm34.662,0H252.485v-9.314h-1.651v9.314h-11.79v-.236l-4.48-24.287,1.886-3.655,1.651,1.768a.9.9,0,0,0,.589.236.471.471,0,0,0,.472-.236l10.611-8.96.354.118a16.1,16.1,0,0,1,3.419.825,18.836,18.836,0,0,1,12.5,17.685v16.742h.236Z" transform="translate(28.162)"/><circle class="i" cx="2.24" cy="2.24" r="2.24" transform="translate(137.991 613.921)"/><text class="h" transform="translate(90.436 457.645) rotate(-90)"><tspan x="0" y="0">VERTICAL SOLUTION</tspan></text></g></svg>