<svg xmlns="http://www.w3.org/2000/svg" width="23.403" height="20" viewBox="0 0 23.403 20"><defs><style>.a{fill:#58bc55;}</style></defs><g transform="translate(-9.137 -14.352)"><g transform="translate(9.137 14.352)"><g transform="translate(0)"><path class="a" d="M16.6,26.959l-2.561-3.671a2.7,2.7,0,0,0-3.752-.668h0a2.7,2.7,0,0,0-.668,3.752L14.384,33.2a2.7,2.7,0,0,0,3.752.668,2.665,2.665,0,0,0,.807-.9h0l.011-.024a2.705,2.705,0,0,0,.16-.349c.98-2.11,6.173-12.771,13.425-18.248C32.54,14.352,23.408,14.583,16.6,26.959Z" transform="translate(-9.137 -14.352)"/></g></g></g></svg>