<svg xmlns="http://www.w3.org/2000/svg" width="155.097" height="120.637" viewBox="0 0 155.097 120.637"><defs><style>.a{fill:#f1f5f6;fill-rule:evenodd;}</style></defs><g transform="translate(-465.372 251.326) rotate(-13)"><g transform="translate(0 -952.362)"><path class="a" d="M10.744,1064.322a5.744,5.744,0,0,1-4-9.864l40.217-40.2a5.747,5.747,0,0,1,8.124,0L74,1033.169l49.329-49.318H91.3a5.744,5.744,0,0,1,0-11.489h45.832q.252,0,.5.023.1.008.193.019.183.019.364.049.1.02.206.044.208.041.413.1l.049.019q.251.074.494.171l.049.023q.21.086.413.188.1.054.2.112.158.09.31.189.079.052.157.107.142.1.278.2t.242.211q.094.081.184.166.108.1.211.215t.18.2q.164.193.31.4l.014.018q.114.169.215.345.058.093.112.188.078.144.148.292.049.1.094.2a5.715,5.715,0,0,1,.31.943q.019.081.036.161.034.17.058.341.018.105.031.211.017.186.022.372,0,.114,0,.229c0,.026,0,.051,0,.077V1024a5.746,5.746,0,0,1-11.491,0V991.974l-53.391,53.379a5.747,5.747,0,0,1-8.124,0L51.02,1026.438l-36.155,36.147a5.745,5.745,0,0,1-4.12,1.741Z" transform="translate(498 -129.963)"/></g></g></svg>