<svg xmlns="http://www.w3.org/2000/svg" xmlns:xlink="http://www.w3.org/1999/xlink" width="1440.006" height="428.162" viewBox="0 0 1440.006 428.162"><defs><style>.a,.s,.t,.u{fill:none;}.b{clip-path:url(#a);}.c{fill:#e8306a;}.d{fill:url(#b);}.e{fill:#b1def1;}.f{fill:url(#c);}.g{fill:url(#d);}.h{fill:#78cae3;}.i{fill:url(#e);}.j{fill:url(#f);}.k{fill:url(#g);}.l{fill:url(#h);}.m{fill:url(#i);}.n{fill:url(#j);}.o{fill:url(#k);}.p,.q,.r{fill:#fff;}.p{font-size:16px;font-family:Satisfy;}.r{font-size:12px;font-family:Montserrat-Regular, Montserrat;}.s,.t{stroke:#fff;}.s,.t,.u{stroke-linecap:square;stroke-miterlimit:10;}.t,.u{opacity:0.2;}.u{stroke:#47494d;}.v{fill:#e8356b;}</style><clipPath id="a"><rect class="a" width="1440.006" height="428.162"/></clipPath><linearGradient id="b" x1="0.522" y1="0.105" x2="0.522" y2="0.98" gradientUnits="objectBoundingBox"><stop offset="0.008" stop-color="#78cae3"/><stop offset="0.042" stop-color="#72c1d9" stop-opacity="0.965"/><stop offset="0.71" stop-color="#1f3346" stop-opacity="0.294"/><stop offset="1" stop-color="#0c101e" stop-opacity="0"/></linearGradient><linearGradient id="c" x1="0.581" y1="0.105" x2="0.581" y2="0.98" xlink:href="#b"/><linearGradient id="d" x1="0.589" y1="0.105" x2="0.589" y2="0.98" xlink:href="#b"/><linearGradient id="e" x1="0.566" y1="0.105" x2="0.566" y2="0.98" xlink:href="#b"/><linearGradient id="f" x1="0.481" y1="0.105" x2="0.481" y2="0.98" gradientUnits="objectBoundingBox"><stop offset="0.006" stop-color="#b1def1"/><stop offset="0.04" stop-color="#a8d3e6" stop-opacity="0.965"/><stop offset="0.709" stop-color="#293547" stop-opacity="0.294"/><stop offset="1" stop-color="#0c101e" stop-opacity="0"/></linearGradient><linearGradient id="g" x1="0.555" y1="0.105" x2="0.555" y2="0.98" xlink:href="#f"/><linearGradient id="h" x1="0.506" y1="0.105" x2="0.506" y2="0.98" xlink:href="#f"/><linearGradient id="i" x1="0.57" y1="0.105" x2="0.57" y2="0.98" xlink:href="#b"/><linearGradient id="j" x1="0.494" y1="-0.063" x2="0.494" y2="0.811" xlink:href="#b"/><linearGradient id="k" x1="0.068" y1="0.125" x2="0.919" y2="0.793" gradientUnits="objectBoundingBox"><stop offset="0" stop-color="#243366"/><stop offset="1" stop-color="#313e64"/></linearGradient></defs><g class="b"><circle class="c" cx="2.051" cy="2.051" r="2.051" transform="translate(1359.49 124.989)"/><circle class="c" cx="2.051" cy="2.051" r="2.051" transform="translate(1302.97 99.609)"/><circle class="c" cx="2.051" cy="2.051" r="2.051" transform="translate(1236.482 122.438)"/><path class="c" d="M87.806,9.552a1.079,1.079,0,1,1-1.079-1.079A1.083,1.083,0,0,1,87.806,9.552ZM58.393,31.841a1.079,1.079,0,1,1-1.079-1.079A1.083,1.083,0,0,1,58.393,31.841ZM165.141,1.079A1.079,1.079,0,1,1,164.062,0,1.083,1.083,0,0,1,165.141,1.079ZM161.471,90.5a1.079,1.079,0,1,1-1.079-1.079A1.083,1.083,0,0,1,161.471,90.5Zm-6.314,40.422a1.079,1.079,0,1,1-1.079-1.079A1.049,1.049,0,0,1,155.157,130.926Zm-36.05-7.987a1.079,1.079,0,1,1-1.079-1.079A1.083,1.083,0,0,1,119.107,122.939Zm-86.132,39.5a1.079,1.079,0,1,1-1.079-1.079A1.16,1.16,0,0,1,32.974,162.443ZM59.58,96.6A1.079,1.079,0,1,1,58.5,95.523,1.16,1.16,0,0,1,59.58,96.6ZM18.3,106.478a1.079,1.079,0,1,1-1.079-1.079A1.083,1.083,0,0,1,18.3,106.478Zm45.333,35.673a1.079,1.079,0,1,1-1.079-1.079A1.119,1.119,0,0,1,63.628,142.151ZM2.159,146.037a1.079,1.079,0,1,1-1.079-1.079A1.083,1.083,0,0,1,2.159,146.037ZM44.685,159.69a1.079,1.079,0,1,1-1.079-1.079A1.083,1.083,0,0,1,44.685,159.69ZM100.11,172a1.079,1.079,0,1,1-1.079-1.079A1.16,1.16,0,0,1,100.11,172Z" transform="translate(1232.111)"/><path class="d" d="M0,0H.432V162.875H0Z" transform="translate(1309.03 43.537)"/><path class="e" d="M4.533,2.267A2.28,2.28,0,0,1,2.267,4.533,2.28,2.28,0,0,1,0,2.267,2.28,2.28,0,0,1,2.267,0,2.28,2.28,0,0,1,4.533,2.267Z" transform="translate(1306.979 41.054)"/><path class="e" d="M2.159,1.079A1.079,1.079,0,1,1,1.079,0,1.049,1.049,0,0,1,2.159,1.079Z" transform="translate(1317.233 97.034)"/><path class="f" d="M0,0H.432V162.875H0Z" transform="translate(1318.097 98.329)"/><path class="g" d="M0,0H.432V238.268H0Z" transform="translate(1339.63 53.467)"/><circle class="e" cx="1.673" cy="1.673" r="1.673" transform="translate(1338.227 51.578)"/><path class="h" d="M5.073,2.536A2.536,2.536,0,1,1,2.537,0,2.534,2.534,0,0,1,5.073,2.536Z" transform="translate(1354.363 92.878)"/><path class="i" d="M0,0H.432V162.875H0Z" transform="translate(1356.63 95.685)"/><path class="e" d="M2.159,1.079A1.079,1.079,0,1,1,1.079,0,1.083,1.083,0,0,1,2.159,1.079Z" transform="translate(1325.005 78.616)"/><path class="j" d="M0,0H.432V162.875H0Z" transform="translate(1325.868 79.911)"/><path class="k" d="M0,0H.432V162.875H0Z" transform="translate(1286.132 89.949)"/><path class="e" d="M4.425,2.213A2.213,2.213,0,1,1,2.213,0,2.188,2.188,0,0,1,4.425,2.213Z" transform="translate(1284.135 87.521)"/><path class="e" d="M2.159,1.079A1.079,1.079,0,1,1,1.079,0,1.083,1.083,0,0,1,2.159,1.079Z" transform="translate(1269.834 106.355)"/><path class="l" d="M0,0H.432V162.875H0Z" transform="translate(1270.698 107.65)"/><path class="h" d="M4.749,2.375A2.4,2.4,0,0,1,2.375,4.749,2.4,2.4,0,0,1,0,2.375,2.4,2.4,0,0,1,2.375,0,2.328,2.328,0,0,1,4.749,2.375Z" transform="translate(1255.101 125.676)"/><path class="m" d="M0,0H.432V162.875H0Z" transform="translate(1257.26 128.266)"/><path class="h" d="M2.159,1.079A1.079,1.079,0,1,1,1.079,0,1.083,1.083,0,0,1,2.159,1.079Z" transform="translate(1365.912 50.568)"/><path class="n" d="M0,0H.432V162.875H0Z" transform="translate(1366.776 51.863)"/><rect class="o" width="1440" height="249" transform="translate(0.006 179.162)"/><rect class="o" width="1440" height="249" transform="translate(0.006 179.162)"/><text class="p" transform="translate(148.006 396.306)"><tspan x="0" y="0">a Positive Thinking Company</tspan></text><rect class="q" width="40" height="39.84" rx="19.92" transform="translate(1250.006 246.89)"/><text class="r" transform="translate(676.006 271.81)"><tspan x="0" y="0">Carrière</tspan></text><text class="r" transform="translate(543.006 272.806)"><tspan x="0" y="0">Blog &amp; News</tspan></text><text class="r" transform="translate(416.006 271.81)"><tspan x="0" y="0">Partenaires</tspan></text><text class="r" transform="translate(782.006 272.162)"><tspan x="0" y="0">Contact</tspan></text><text class="r" transform="translate(148.006 271.81)"><tspan x="0" y="0">À Propos</tspan></text><text class="r" transform="translate(261.006 271.81)"><tspan x="0" y="0">Data &amp; Analytics</tspan></text><text class="r" transform="translate(1173.006 397.306)"><tspan x="0" y="0" xml:space="preserve">Privacy      -    Terms</tspan></text><path class="s" d="M.5,1.494h1439" transform="translate(0.006 178.166)"/><path class="t" d="M.494,1.494H1439.5" transform="translate(0.006 353.462)"/><path class="u" d="M.494,1.494H1439.5" transform="translate(0.006 178.166)"/><ellipse class="v" cx="1.946" cy="1.962" rx="1.946" ry="1.962" transform="translate(1262.265 258.503)"/><rect class="v" width="3.539" height="10.617" transform="translate(1262.442 264.004)"/><path class="v" d="M-7.461,17.942V16.008H-11V26.624h3.539V21.562c0-3.047,3.542-3.328,3.542,0v5.062H-.383V20.681C-.383,14.87-5.918,15.082-7.461,17.942Z" transform="translate(1278.751 247.996)"/></g></svg>