<svg xmlns="http://www.w3.org/2000/svg" width="172.388" height="115" viewBox="0 0 172.388 115"><defs><style>.a{fill:#f1f5f6;}</style></defs><g transform="translate(-14.006 -26.976)"><g transform="translate(14.006 26.976)"><path class="a" d="M44.822,27.034A4.79,4.79,0,0,0,41.3,28.98L14.889,64.9a4.79,4.79,0,0,0,.823,6.436L39.733,91.614a14.348,14.348,0,0,0,7.782,26.415,13.924,13.924,0,0,0,3.293-.449,11.989,11.989,0,0,0,11.075,7.633c.077,0,.148,0,.225,0a12.091,12.091,0,0,0,11.748,9.578,11.632,11.632,0,0,0,3.218-.524,12.034,12.034,0,0,0,11.15,7.708,11.833,11.833,0,0,0,6.51-2.02,16.359,16.359,0,0,0,7.857,2.02,14.029,14.029,0,0,0,9.878-4.415,15.537,15.537,0,0,0,3.742-5.612,12.369,12.369,0,0,0,3.143.449,13.22,13.22,0,0,0,11.823-7.483,12.114,12.114,0,0,0,2.544.3,13.212,13.212,0,0,0,12.048-8.082,13.61,13.61,0,0,0,19.082-13.021q0-.037,0-.075c-.094-4.914-2.9-8.526-6.436-11.15l26.191-21.477a4.79,4.79,0,0,0,.9-6.51L159.09,28.98a4.65,4.65,0,0,0-5.463-1.721c-14.238,4.873-22.277,4.565-39.062,4.565A27.934,27.934,0,0,0,100.2,35.789a27.934,27.934,0,0,0-14.368-3.966c-16.785,0-24.824.308-39.062-4.565a4.79,4.79,0,0,0-1.946-.225Zm2.245,10.252C60.579,41.378,70.488,41.4,85.829,41.4a18.036,18.036,0,0,1,6.81,1.2L75.054,62.13a4.79,4.79,0,0,0-.973,4.714,15.149,15.149,0,0,0,8.456,9.279,17.827,17.827,0,0,0,8.531,1.123c2.861-.268,4.709-1.348,6.959-2.619s4.568-2.817,6.735-4.34c2.673-1.879,3.478-2.6,4.939-3.742l42.579,33.674q.11.078.225.15a9.562,9.562,0,0,1,2.769,3.817,3.993,3.993,0,0,1-1.122,3.218,4.236,4.236,0,0,1-2.993,1.048,23.444,23.444,0,0,1-2.32-.524c.628.407-.479-.314-1.422-1.048s-2.23-1.8-3.742-2.993c-3.023-2.386-6.9-5.451-10.776-8.531-7.744-6.16-15.341-12.2-15.341-12.2a4.792,4.792,0,1,0-5.987,7.483s7.587,6.03,15.341,12.2c3.743,2.977,7.482,5.942,10.476,8.306a4.787,4.787,0,0,0-.075.674,3.654,3.654,0,0,1-3.592,3.816,3.254,3.254,0,0,1-1.946-.673c.424.3-.331-.23-.973-.748s-1.515-1.256-2.544-2.1c-2.06-1.678-4.769-3.824-7.408-5.987-5.278-4.324-10.4-8.606-10.4-8.606a4.811,4.811,0,1,0-6.136,7.408s5.192,4.276,10.476,8.606c2.642,2.165,5.336,4.3,7.408,5.987.25.2.371.336.6.524a3.534,3.534,0,0,1-3.442,2.769,3.253,3.253,0,0,1-1.946-.673c-.032-.024-10.6-7.776-16.538-12.647a4.811,4.811,0,1,0-6.136,7.408c4.215,3.459,9,7.027,12.646,9.728v.973a5.324,5.324,0,0,1-1.646,3.143,5.583,5.583,0,0,1-3.143,1.646,5.507,5.507,0,0,1-2.619-.3,11.669,11.669,0,0,0,.224-2.1,12.046,12.046,0,0,0-11.973-11.973,11.619,11.619,0,0,0-3.218.524,12.034,12.034,0,0,0-11.15-7.708c-.077,0-.148,0-.224,0a12.092,12.092,0,0,0-11.749-9.578c-.077,0-.148,0-.224,0a14.538,14.538,0,0,0-8.68-10.85L25.291,66.994Zm106.261,0L175.1,66.919l-24.32,19.83L112.769,56.742a4.79,4.79,0,0,0-5.987.075S103.32,59.6,99.3,62.429c-2.011,1.413-4.186,2.8-5.987,3.816s-3.555,1.535-3.143,1.5a9.38,9.38,0,0,1-4.041-.449,4.505,4.505,0,0,1-1.721-1.2l17.885-19.83a4.79,4.79,0,0,0,2.619-2.17,16.979,16.979,0,0,1,9.653-2.694C129.907,41.4,139.815,41.378,153.327,37.286ZM47.516,98.872a4.789,4.789,0,1,1-4.789,4.789A4.718,4.718,0,0,1,47.516,98.872Zm14.368,11.973a2.395,2.395,0,1,1-2.395,2.395A2.326,2.326,0,0,1,61.883,110.845Zm11.973,9.578a2.395,2.395,0,1,1-2.395,2.395A2.326,2.326,0,0,1,73.856,120.424Zm14.368,7.184A2.395,2.395,0,1,1,85.829,130,2.326,2.326,0,0,1,88.224,127.607Z" transform="translate(-14.006 -26.976)"/></g></g></svg>