<svg xmlns="http://www.w3.org/2000/svg" width="11.085" height="14.212" viewBox="0 0 11.085 14.212"><defs><style>.a{fill:#e8356b;}</style></defs><g transform="translate(-18.1 -9.1)"><g transform="translate(18.1 9.1)"><path class="a" d="M23.643,9.1A5.488,5.488,0,0,0,18.1,14.521a5.3,5.3,0,0,0,1.113,3.25h0L23.226,23.1a.521.521,0,0,0,.834,0l4.014-5.334h0a5.3,5.3,0,0,0,1.112-3.249A5.488,5.488,0,0,0,23.643,9.1Zm0,8.218a2.8,2.8,0,1,1,2.8-2.8A2.8,2.8,0,0,1,23.643,17.318Z" transform="translate(-18.1 -9.1)"/></g></g></svg>