<svg xmlns="http://www.w3.org/2000/svg" width="43.9" height="42.915" viewBox="0 0 43.9 42.915"><defs><style>.a{fill:#243366;}</style></defs><g transform="translate(0 0)"><path class="a" d="M40.148,26.676c0-.28-.013-.557-.034-.832a11.256,11.256,0,0,0-.236-1.626,11.4,11.4,0,1,0,.27,2.458Zm-21.477,0a10.065,10.065,0,0,1,20.04-1.34L35.1,28.8a2.156,2.156,0,0,0-1.09-.3,2.178,2.178,0,0,0-1.839,1.019L26.739,27.4a2.179,2.179,0,1,0-4.193.92l-2.772,2.914A10,10,0,0,1,18.671,26.676Zm16.182,4a.846.846,0,1,1-.846-.846A.847.847,0,0,1,34.853,30.676ZM23.72,27.5a.846.846,0,1,1,.846.846A.846.846,0,0,1,23.72,27.5Zm5.02,9.247a10.061,10.061,0,0,1-8.254-4.318l2.93-3.08a2.158,2.158,0,0,0,1.148.335,2.183,2.183,0,0,0,1.821-.983l5.453,2.12A2.178,2.178,0,1,0,36,29.787l2.792-2.674A10.073,10.073,0,0,1,28.74,36.746Z" transform="translate(-11.567 -11.017)"/><path class="a" d="M48.31,41.806l-10-10.414-.938.9L36,30.858A15.6,15.6,0,0,0,37.908,18l2.24-2.146a2.15,2.15,0,0,0,.723.133A2.185,2.185,0,0,0,43.054,13.8a2.159,2.159,0,0,0-.228-.954l3.813-3.8v1.925h1.337V6.686H43.883V8.024h1.893l-3.881,3.865a2.153,2.153,0,0,0-1.024-.268,2.18,2.18,0,0,0-1.8,3.413L37.43,16.6A15.655,15.655,0,1,0,9.9,31.111L8.683,32.388a2.2,2.2,0,1,0,1.031.858l.994-1.045a15.622,15.622,0,0,0,20.6,3.323l1.29,1.344-.939.9,10,10.414a4.606,4.606,0,1,0,6.648-6.377ZM40.87,12.959a.846.846,0,1,1-.846.846A.847.847,0,0,1,40.87,12.959ZM7.876,35.259a.846.846,0,1,1,.846-.847A.847.847,0,0,1,7.876,35.259Zm3.763-4.037q-.423-.533-.795-1.106a14.321,14.321,0,1,1,23.8.365L30.5,34.454a14.285,14.285,0,0,1-18.861-3.232Zm20.776,3.522a15.814,15.814,0,0,0,2.793-2.777l1.2,1.25-2.842,2.725Zm2.5,1.755,3.354-3.217L39.341,34.4l-4.684,4.562-1.106-1.152ZM47.247,47.354a3.267,3.267,0,0,1-4.621-.1l-7.043-7.333,4.684-4.562,7.077,7.37a3.268,3.268,0,0,1-.1,4.622Z" transform="translate(-5.693 -6.686)"/><path class="a" d="M37.169,23.974l.431-1.266a8.183,8.183,0,0,0-8.018,1.556l.918.973A6.908,6.908,0,0,1,37.169,23.974Z" transform="translate(-17.748 -14.541)"/><path class="a" d="M49.163,25.408c-.478-.342-.971-.7-.972-.706L47.4,25.78s.5.368.986.715Z" transform="translate(-26.738 -15.777)"/></g></svg>