<svg xmlns="http://www.w3.org/2000/svg" width="50.419" height="50.419" viewBox="0 0 50.419 50.419"><defs><style>.a{fill:#243366;}</style></defs><g transform="translate(-1 -1)"><g transform="translate(1 1)"><path class="a" d="M51.419,8.319H47.082l-.217.163a11.461,11.461,0,0,1-6.831,2.277V1H8.8L1,8.8V51.419H40.034V17.264a11.221,11.221,0,0,1,1.626.125V45.16l4.066,6.1,4.066-6.1V19.7h1.626ZM38.408,14.825V13.2a.815.815,0,0,1,.813-.813h.813v3.253h-.813A.815.815,0,0,1,38.408,14.825Zm3.253.926V12.272a13.114,13.114,0,0,0,4.879-1.641v6.76A13.157,13.157,0,0,0,41.66,15.751ZM8.319,3.776V8.319H3.776ZM2.626,49.793V9.945H9.945V2.626H38.408v8.282a2.436,2.436,0,0,0-1.626,2.29v1.626a2.436,2.436,0,0,0,1.626,2.29V49.793ZM46.54,44.1V40.847H44.913V44.1H43.287V26.209h1.626V39.221H46.54V26.209h1.626V44.1ZM43.287,24.583V22.957h4.879v1.626Zm.706,21.143h3.467l-1.733,2.6Zm4.173-24.4H43.287V17.752a11.433,11.433,0,0,1,3.578,1.789l.217.163h1.084Zm1.626-3.253H48.166V9.945h1.626Z" transform="translate(-1 -1)"/><path class="a" d="M30.311,35.17l3.026-.749A56.5,56.5,0,0,1,8.431,45.178l-3.6.6.267,1.6,3.6-.6A58.126,58.126,0,0,0,35.622,34.7l-.557,4.458,1.613.2.96-7.68-7.719,1.911Z" transform="translate(-1.717 -6.731)"/><path class="a" d="M39,56.011h4.879V43H39Zm1.626-11.385h1.626v9.759H40.626Z" transform="translate(-8.098 -8.845)"/><path class="a" d="M31,56.385h4.879V45H31Zm1.626-9.759h1.626v8.132H32.626Z" transform="translate(-6.604 -9.219)"/><path class="a" d="M23,57.132h4.879V49H23Zm1.626-6.506h1.626v4.879H24.626Z" transform="translate(-5.109 -9.966)"/><path class="a" d="M15,57.506h4.879V51H15Zm1.626-4.879h1.626v3.253H16.626Z" transform="translate(-3.615 -10.34)"/><path class="a" d="M7,57.879h4.879V53H7Zm1.626-3.253h1.626v1.626H8.626Z" transform="translate(-2.121 -10.713)"/><path class="a" d="M27.572,26.143A10.572,10.572,0,1,0,17,15.572,10.584,10.584,0,0,0,27.572,26.143Zm0-1.626a8.885,8.885,0,0,1-5.3-1.757l5.666-6.376h8.539A8.954,8.954,0,0,1,27.572,24.517Zm8.9-9.759H28.142L25.3,6.931a8.9,8.9,0,0,1,11.18,7.827ZM23.767,7.488l2.875,7.906-5.588,6.285A8.915,8.915,0,0,1,23.767,7.488Z" transform="translate(-3.989 -1.747)"/><rect class="a" width="1.626" height="1.626" transform="translate(3.253 24.396)"/><rect class="a" width="11.385" height="1.626" transform="translate(6.506 24.396)"/><rect class="a" width="1.626" height="1.626" transform="translate(3.253 27.649)"/><rect class="a" width="11.385" height="1.626" transform="translate(6.506 27.649)"/><rect class="a" width="1.626" height="1.626" transform="translate(3.253 30.902)"/><rect class="a" width="11.385" height="1.626" transform="translate(6.506 30.902)"/></g></g></svg>