<svg xmlns="http://www.w3.org/2000/svg" width="58.359" height="49.929" viewBox="0 0 58.359 49.929"><defs><style>.a{fill:#243366;}</style></defs><g transform="translate(0 -9.25)"><path class="a" d="M40.629,84.93h-2.1a.912.912,0,0,0,0,1.824h1.874A9.187,9.187,0,0,1,40.629,84.93Z" transform="translate(-20.468 -41.175)"/><path class="a" d="M42.521,105.016a.912.912,0,0,0,.643-.269l2.28-2.28a9.315,9.315,0,0,1-1.19-1.368l-.059.05-2.321,2.321a.912.912,0,0,0,.643,1.555Z" transform="translate(-22.638 -49.973)"/><path class="a" d="M79.492,100.76a9.319,9.319,0,0,1-1.112,1.368.912.912,0,0,0,.109.137l2.321,2.321a.912.912,0,1,0,1.29-1.29l-2.321-2.321a.912.912,0,0,0-.287-.214Z" transform="translate(-42.644 -49.788)"/><path class="a" d="M87.131,85.842a.912.912,0,0,0-.912-.912H83.78a9.187,9.187,0,0,1,.228,1.824h2.211A.912.912,0,0,0,87.131,85.842Z" transform="translate(-45.582 -41.175)"/><path class="a" d="M75.965,48.166h3.688a.912.912,0,0,0-.365-1.746H76.326a.912.912,0,0,0-.365,1.746Z" transform="translate(-41.032 -20.223)"/><path class="a" d="M89.565,48.074H97.1a.912.912,0,1,0,0-1.824H89.51A2.708,2.708,0,0,1,89.565,48.074Z" transform="translate(-48.7 -20.131)"/><path class="a" d="M20.746,48.074H43.484a2.708,2.708,0,0,1,.055-1.824h-22.8a.912.912,0,1,0,0,1.824Z" transform="translate(-10.789 -20.131)"/><path class="a" d="M56.332,9.42a.9.9,0,0,0-.875,1.154v.055a.912.912,0,0,0,.26.388l.032.027a.912.912,0,0,0,.565.2h2.964a.912.912,0,0,0,.584-.191l.032-.027a.912.912,0,0,0,.26-.388v-.055a.9.9,0,0,0-.875-1.154Z" transform="translate(-30.152 -0.092)"/><path class="a" d="M107.345,114.76h-2.964a.912.912,0,1,0-.05,1.824h3.059a.912.912,0,0,0-.05-1.824Z" transform="translate(-56.281 -57.404)"/><path class="a" d="M56.535,17.685h-15.5V14.265A5.015,5.015,0,0,0,36.019,9.25H31.692a2.708,2.708,0,0,1,.055,1.824h4.272a3.192,3.192,0,0,1,3.192,3.192v3.419H19.149V14.265a3.192,3.192,0,0,1,3.192-3.192h1.236a2.708,2.708,0,0,1,.055-1.824h-1.29a5.015,5.015,0,0,0-5.015,5.015v3.419H1.824A1.824,1.824,0,0,0,0,19.508V57.351a1.824,1.824,0,0,0,1.824,1.824H45.506a2.685,2.685,0,0,1,0-1.824H1.824V23.3l2.7,8.567A.912.912,0,0,0,5.4,32.5H8.663v2.28a3.192,3.192,0,0,0,6.383,0V32.5H28.268v1.632H26.9a.912.912,0,0,0-.912.912v.292a7.331,7.331,0,0,1-.456,2.444h0a.912.912,0,0,0-.693,1.5,8.827,8.827,0,0,1-1.094,1.45A7.427,7.427,0,0,0,28.81,53.215h.374a7.427,7.427,0,0,0,5.407-12.506,8.539,8.539,0,0,1-1.076-1.423.912.912,0,0,0-.688-1.5H32.8a7.391,7.391,0,0,1-.429-2.444v-.292a.912.912,0,0,0-.912-.912H30.091V32.5H41.946v2.28a3.192,3.192,0,0,0,6.383,0V32.5h4.632a.912.912,0,0,0,.871-.638l2.7-8.567V57.351H53.622a2.685,2.685,0,0,1,0,1.824h2.913a1.824,1.824,0,0,0,1.824-1.824V19.508A1.824,1.824,0,0,0,56.535,17.685Zm-43.313,17.1a1.368,1.368,0,0,1-2.736,0V32.5h2.736Zm18.383,4.824a10.272,10.272,0,0,0,1.678,2.357A5.6,5.6,0,0,1,28.92,51.4a5.681,5.681,0,0,1-5.344-5.508,5.581,5.581,0,0,1,1.5-3.93,10.528,10.528,0,0,0,1.664-2.371ZM30.57,35.958a9.2,9.2,0,0,0,.319,1.824H27.465a9.146,9.146,0,0,0,.324-1.824Zm15.958-1.176a1.368,1.368,0,1,1-2.736,0V32.5h2.736Zm5.786-4.1H6.068L2.612,19.736H55.747Z" transform="translate(0)"/></g></svg>