<svg xmlns="http://www.w3.org/2000/svg" width="56" height="63.41" viewBox="0 0 56 63.41"><defs><style>.a{fill:#243366;}</style></defs><g transform="translate(-4 -0.29)"><path class="a" d="M53.29,35.29l-9,9L45.7,45.7l8.21-8.21a4.26,4.26,0,0,1-.63,5.8L41.59,55H21a1,1,0,0,0-.71.29l-7,7L14.7,63.7,21.41,57H42a1,1,0,0,0,.71-.29l12-12a6.414,6.414,0,0,0,0-9.41,1,1,0,0,0-1.42-.01Z"/><rect class="a" width="2" height="2" transform="translate(23 47)"/><path class="a" d="M7,29a1,1,0,0,0,.71-.29l9-9L15.3,18.3,7.06,26.52a5.05,5.05,0,0,1-1-2.75,4.24,4.24,0,0,1,1.42-3.06L19.41,9H40a1,1,0,0,0,.71-.29l7-7L46.29.29,39.59,7H19a1,1,0,0,0-.7.29l-12.23,12a6.17,6.17,0,0,0-2,4.51,7.65,7.65,0,0,0,2.26,4.93A1,1,0,0,0,7,29Z"/><rect class="a" width="2" height="2" transform="translate(36 15)"/><path class="a" d="M59,22H56V19H54v3H49a1,1,0,0,0-1,1v8H43.95a12,12,0,0,0-5.33-9H44a1,1,0,0,0,.71-.29l12-12L55.29,8.29,43.59,20H20.1c.21-1.19.86-3,2.9-3H34V15H23c-4,0-5,3.92-5,6a1,1,0,0,0,1,1h6.38a12,12,0,0,0-5.33,9H10a1,1,0,0,0-1,1v4h2V33h3v6H6V36H4v4a1,1,0,0,0,1,1h5v2H8v2h3a1,1,0,0,0,1-1V41h3a1,1,0,0,0,1-1V33h4.05a12,12,0,0,0,5.33,9H17a1,1,0,0,0-.71.29l-12,12L5.7,55.7,17.41,44H40.9c-.21,1.19-.86,3-2.9,3H27v2H38c4,0,5-3.92,5-6a1,1,0,0,0-1-1H38.62a12,12,0,0,0,5.33-9H49a1,1,0,0,0,1-1V31h6V29H50V24h8v3h2V23A1,1,0,0,0,59,22ZM32,42A10,10,0,1,1,42,32,10,10,0,0,1,32,42Z"/><rect class="a" width="2" height="2" transform="translate(54 15)"/><rect class="a" width="2" height="2" transform="translate(58 29)"/><rect class="a" width="2" height="2" transform="translate(4 32)"/><rect class="a" width="2" height="2" transform="translate(4 43)"/><path class="a" d="M32,36a4,4,0,0,1,0-8V26a6,6,0,1,0,6,6H36A4,4,0,0,1,32,36Z"/></g></svg>