<svg xmlns="http://www.w3.org/2000/svg" width="43.415" height="43.415" viewBox="0 0 43.415 43.415"><defs><style>.a{fill:#243366;}</style></defs><g transform="translate(0 0)"><g transform="translate(0 36.179)"><path class="a" d="M51.275,423.236H24.14a9.457,9.457,0,0,1-5.659-1.77A5.7,5.7,0,0,1,16,416.9a.9.9,0,0,1,.9-.9H58.51a.9.9,0,0,1,.9.9,5.7,5.7,0,0,1-2.481,4.561A9.457,9.457,0,0,1,51.275,423.236Zm-33.338-5.427c.588,2.062,3.147,3.618,6.2,3.618H51.275c3.057,0,5.616-1.556,6.2-3.618Z" transform="translate(-16 -416)"/></g><g transform="translate(3.618 11.758)"><path class="a" d="M91.275,172.23H56.9a.9.9,0,0,1-.9-.9V150.281A4.286,4.286,0,0,1,60.281,146H87.9a4.286,4.286,0,0,1,4.281,4.281v21.044A.9.9,0,0,1,91.275,172.23Zm-33.466-1.809H90.37v-20.14a2.475,2.475,0,0,0-2.472-2.472H60.281a2.475,2.475,0,0,0-2.472,2.472Z" transform="translate(-56 -146)"/></g><g transform="translate(11.758 32.561)"><path class="a" d="M173.134,377.809H146.9a.9.9,0,1,1,0-1.809h26.23a.9.9,0,1,1,0,1.809Z" transform="translate(-146 -376)"/></g><rect class="a" width="1.809" height="1.809" transform="translate(7.236 25.325)"/><rect class="a" width="1.809" height="1.809" transform="translate(10.854 25.325)"/><rect class="a" width="1.809" height="1.809" transform="translate(30.752 25.325)"/><rect class="a" width="1.809" height="1.809" transform="translate(34.37 25.325)"/><g transform="translate(11.026 16.151)"><path class="a" d="M142.039,202.841a4.135,4.135,0,1,1,4.135-4.135A4.14,4.14,0,0,1,142.039,202.841Zm0-6.461a2.326,2.326,0,1,0,2.326,2.326A2.329,2.329,0,0,0,142.039,196.381Z" transform="translate(-137.904 -194.572)"/></g><g transform="translate(25.024 16.151)"><path class="a" d="M296.8,202.841a4.135,4.135,0,1,1,4.135-4.135A4.139,4.139,0,0,1,296.8,202.841Zm0-6.461a2.326,2.326,0,1,0,2.326,2.326A2.328,2.328,0,0,0,296.8,196.381Z" transform="translate(-292.667 -194.572)"/></g><g transform="translate(17.487)"><path class="a" d="M213.468,24.27a4.135,4.135,0,1,1,4.135-4.135A4.139,4.139,0,0,1,213.468,24.27Zm0-6.461a2.326,2.326,0,1,0,2.326,2.326A2.329,2.329,0,0,0,213.468,17.809Z" transform="translate(-209.333 -16)"/></g><g transform="translate(15.333 6.461)"><path class="a" d="M186.426,98.93a.9.9,0,0,1-.835-1.253l4.038-9.691a.9.9,0,0,1,.835-.557h2.961a.9.9,0,0,1,.809.5l4.845,9.691a.9.9,0,0,1-1.618.809l-4.6-9.191h-1.8l-3.806,9.134A.9.9,0,0,1,186.426,98.93Z" transform="translate(-185.521 -87.43)"/></g></g></svg>